<?xml version="1.0" encoding="UTF-8"?><svg id="Layer_2" xmlns="http://www.w3.org/2000/svg" viewBox="0 0 400 212.27"><defs><style>.cls-1{fill:#fff;}</style></defs><g id="Layer_1-2"><g><g><polygon class="cls-1" points="203.48 69.13 238 69.13 238 24.94 203.48 69.13"/><path class="cls-1" d="m237.42.58l.02-.05-.52-.14c-.1-.03-.18-.09-.28-.12-.07-.02-.12-.09-.2-.11-2.03-.54-3.91.28-4.97,1.55-.28.27-.54.46-.79.78l-6.02,7.63h-42.46c-.19,0-.39.05-.59.05-2.64,0-4.74,2.18-4.74,4.82,0,.29.11.62.11.89v54.41c0,.38.02.74.13,1.09l-5.48,7.01c-.36.46-.79,1.14-.97,1.81-.56,2.12.46,4.28,2.37,5.26l-.05.16.52.14c.1.03.21-.02.3,0,.07.02.14.03.21.05,2.03.54,3.92-.31,4.98-1.58.28-.27.55-.56.8-.89L238.86,7.55c.36-.46.78-1.12.95-1.79.56-2.11-.48-4.2-2.4-5.18Z"/></g><g><path class="cls-1" d="m7.32,202.68h-3.3v5.49H.67v-17.15h6.65c3.54,0,5.66,1.95,5.66,5.83s-2.12,5.83-5.66,5.83Zm-.17-8.67h-3.13v5.66h3.13c1.52,0,2.48-.7,2.48-2.82s-.96-2.84-2.48-2.84Z"/><path class="cls-1" d="m24.71,208.17l-.72-1.64-3.85,1.78c-1.25,0-2.02-.41-2.72-1.11-1.01-1.01-1.28-2.19-1.28-3.56v-9.22h3.13v8.55c0,1.71.84,2.29,1.83,2.29l2.82-1.52v-9.32h3.13v13.75h-2.34Z"/><path class="cls-1" d="m41.21,204.73c-.19,2.55-2.43,3.64-4.99,3.64s-5.42-.55-5.42-4.09v-.29h2.84c0,1.52.75,1.93,2.58,1.93.94,0,1.93-.31,1.93-1.4,0-.7-.1-1.59-1.47-1.83l-2.43-.41c-2.07-.34-3.18-1.66-3.18-3.97,0-2.67,2.22-4.07,4.99-4.07,2.31,0,4.94.72,4.94,4.26v.31h-2.72c-.07-1.61-.96-1.95-2.19-1.95-1.37,0-1.97.7-1.97,1.28,0,.53.12,1.4,1.11,1.57l2.91.53c2.34.43,3.08,2.19,3.08,4.14v.36Z"/><path class="cls-1" d="m52.41,208.17l-.96-1.66-3.35,1.81c-3.85,0-4.6-2.99-4.6-6.91,0-3.37.19-6.89,4.58-6.89h3.3l3.13-.19v13.85h-2.1Zm-1.04-10.84h-2.38c-1.88,0-2.36,1.54-2.36,4.07s.48,3.61,2.36,3.61l2.38-1.23v-6.46Z"/><path class="cls-1" d="m63.03,208.17c-2.55,0-3.64-1.81-3.64-3.59v-7.23h-1.32v-2.38h1.32v-2.7h3.13v2.7h2.22v2.38h-2.22v7.03c0,.72.34,1.13,1.08,1.13h1.37v2.65h-1.95Z"/><path class="cls-1" d="m89.45,208.17h-3.9l-4.05-6.48-2.34,3.13v3.35h-3.35v-17.15h3.35v9.59l6.48-9.59h3.37l-5.47,8.07,5.9,9.08Z"/><path class="cls-1" d="m100.17,208.17l-.96-1.66-3.35,1.81c-3.85,0-4.6-2.99-4.6-6.91,0-3.37.19-6.89,4.58-6.89h3.3l3.13-.19v13.85h-2.1Zm-1.04-10.84h-2.38c-1.88,0-2.36,1.54-2.36,4.07s.48,3.61,2.36,3.61l2.38-1.23v-6.46Z"/><path class="cls-1" d="m109.99,208.68c0,1.78-1.08,3.59-3.66,3.59h-1.78v-2.65h1.2c.8,0,1.11-.38,1.11-1.13v-13.56h3.13v13.75Zm-1.54-15.87c-1.49,0-1.83-.34-1.83-1.83s.34-1.81,1.83-1.81,1.81.31,1.81,1.81-.31,1.83-1.81,1.83Z"/><path class="cls-1" d="m116.28,192.81c-1.49,0-1.83-.34-1.83-1.83s.34-1.81,1.83-1.81,1.81.31,1.81,1.81-.31,1.83-1.81,1.83Zm-1.59,15.37v-13.25h3.13v13.25h-3.13Z"/><path class="cls-1" d="m129.89,208.17l-.96-1.66-3.35,1.81c-3.85,0-4.6-2.99-4.6-6.91,0-3.37.19-6.89,4.58-6.89h3.3l3.13-.19v13.85h-2.1Zm-1.04-10.84h-2.38c-1.88,0-2.36,1.54-2.36,4.07s.48,3.61,2.36,3.61l2.38-1.23v-6.46Z"/><path class="cls-1" d="m144.12,208.17v-8.79c0-1.71-.84-2.05-1.83-2.05l-2.82,1.18v9.66h-3.13v-13.75h2.34l.72,1.64,3.85-1.78c1.25,0,2.02.41,2.72,1.11,1.01,1.01,1.28,2.19,1.28,3.56v9.22h-3.13Z"/><path class="cls-1" d="m168.2,204.44c-.46.89-1.08,1.3-1.69,1.3s-1.2-.46-1.66-1.37l-3.13-6.43v10.24h-3.35v-17.15h3.3l4.84,9.9,4.82-9.9h3.3v17.15h-3.35v-10.24l-3.08,6.5Z"/><path class="cls-1" d="m181.4,202.03c0,2.29.43,3.61,2.96,3.61,1.76,0,2.26-1.52,2.26-2.14h2.82c0,3.59-2.17,4.99-5.11,4.99-4.24,0-6.05-1.64-6.05-7.68,0-4.58,1.97-6.55,5.95-6.55s5.23,2.6,5.23,5.8c0,.6-.02,1.3-.05,1.97h-8.02Zm5.23-2.14c0-2.17-.82-3.03-2.48-3.03-1.49,0-2.67.82-2.67,3.03h5.15Z"/><path class="cls-1" d="m201.41,208.17l-.96-1.66-3.35,1.81c-3.85,0-4.6-2.99-4.6-6.91,0-3.37.19-6.89,4.58-6.89h3.3v-4.46h3.13v18.11h-2.1Zm-1.03-10.84h-2.38c-1.88,0-2.36,1.54-2.36,4.07s.48,3.61,2.36,3.61l2.38-1.23v-6.46Z"/><path class="cls-1" d="m209.82,192.81c-1.49,0-1.83-.34-1.83-1.83s.34-1.81,1.83-1.81,1.81.31,1.81,1.81-.31,1.83-1.81,1.83Zm-1.59,15.37v-13.25h3.13v13.25h-3.13Z"/><path class="cls-1" d="m223.43,208.17l-.96-1.66-3.35,1.81c-3.85,0-4.6-2.99-4.6-6.91,0-3.37.19-6.89,4.58-6.89h3.3l3.13-.19v13.85h-2.1Zm-1.04-10.84h-2.38c-1.88,0-2.36,1.54-2.36,4.07s.48,3.61,2.36,3.61l2.38-1.23v-6.46Z"/><path class="cls-1" d="m245.61,198.42h6.48v2.55h-2.22c.14,6.29-2.02,7.35-6.02,7.35-4.26,0-6.29-1.88-6.29-4.86,0-1.54.34-2.96,2.02-4.29-.87-1.01-1.37-2.36-1.37-3.97,0-3.13,2.05-4.53,5.39-4.53,3.83,0,5.69,1.69,5.69,5.44h-3.16c0-1.97-.46-2.55-2.53-2.55-1.61,0-2.17,1.25-2.17,1.66,0,.89.22,1.81.6,2.5.38-.17.79-.36,1.25-.53l.58,2.67c-1.49.63-2.94,1.47-2.94,3.42,0,1.32.68,2.14,2.92,2.14s2.84-1.18,2.91-4.46h-1.16v-2.55Z"/><path class="cls-1" d="m276.15,208.17h-3.9l-4.05-6.48-2.34,3.13v3.35h-3.35v-17.15h3.35v9.59l6.48-9.59h3.37l-5.47,8.07,5.9,9.08Z"/><path class="cls-1" d="m284.26,208.51c-4.72,0-5.78-2.94-5.78-7.27,0-4,1.08-7.01,5.78-7.01s5.8,2.72,5.8,7.01-1.01,7.27-5.8,7.27Zm2.67-7.8c0-1.98-.27-3.66-2.67-3.66-2.12,0-2.65,1.73-2.65,3.56v1.25c0,1.73.46,3.83,2.65,3.83,2.41,0,2.67-2.1,2.67-3.73v-1.25Z"/><path class="cls-1" d="m308.37,208.17v-8.55c0-1.71-.36-2.29-1.35-2.29l-2.82,1.18v9.66h-3.13v-8.55c0-1.71-.6-2.29-1.59-2.29l-2.58,1.18v9.66h-3.13v-13.75h2.34l.72,1.64,3.61-1.78c1.4,0,2.31.82,2.84,1.83l4.48-1.83c2.63,0,3.73,1.95,3.73,4.67v9.22h-3.13Z"/><path class="cls-1" d="m324.03,208.17l-.72-1.64-3.85,1.78c-1.25,0-2.02-.41-2.72-1.11-1.01-1.01-1.28-2.19-1.28-3.56v-9.22h3.13v8.55c0,1.71.84,2.29,1.83,2.29l2.82-1.52v-9.32h3.13v13.75h-2.34Z"/><path class="cls-1" d="m338.62,208.17v-8.79c0-1.71-.84-2.05-1.83-2.05l-2.82,1.18v9.66h-3.13v-13.75h2.34l.72,1.64,3.85-1.78c1.25,0,2.02.41,2.72,1.11,1.01,1.01,1.28,2.19,1.28,3.56v9.22h-3.13Z"/><path class="cls-1" d="m347.68,192.81c-1.49,0-1.83-.34-1.83-1.83s.34-1.81,1.83-1.81,1.81.31,1.81,1.81-.31,1.83-1.81,1.83Zm-1.59,15.37v-13.25h3.13v13.25h-3.13Z"/><path class="cls-1" d="m361.98,208.17l-3.61-4.87-1.37,1.95v2.91h-3.13v-18.11h3.13v11.44l4.38-6.53h3.54l-4.5,6.16,5.32,7.03h-3.76Z"/><path class="cls-1" d="m375.95,208.17l-.96-1.66-3.35,1.81c-3.85,0-4.6-2.99-4.6-6.91,0-3.37.19-6.89,4.58-6.89h3.3l3.13-.19v13.85h-2.1Zm-1.04-10.84h-2.38c-1.88,0-2.36,1.54-2.36,4.07s.48,3.61,2.36,3.61l2.38-1.23v-6.46Z"/><path class="cls-1" d="m392.09,204.73c-.19,2.55-2.43,3.64-4.99,3.64s-5.42-.55-5.42-4.09v-.29h2.84c0,1.52.75,1.93,2.58,1.93.94,0,1.93-.31,1.93-1.4,0-.7-.1-1.59-1.47-1.83l-2.43-.41c-2.07-.34-3.18-1.66-3.18-3.97,0-2.67,2.22-4.07,4.99-4.07,2.31,0,4.94.72,4.94,4.26v.31h-2.72c-.07-1.61-.96-1.95-2.19-1.95-1.37,0-1.97.7-1.97,1.28,0,.53.12,1.4,1.11,1.57l2.91.53c2.34.43,3.08,2.19,3.08,4.14v.36Z"/><path class="cls-1" d="m397.51,192.81c-1.49,0-1.83-.34-1.83-1.83s.34-1.81,1.83-1.81,1.81.31,1.81,1.81-.31,1.83-1.81,1.83Zm-1.59,15.37v-13.25h3.13v13.25h-3.13Z"/></g><path class="cls-1" d="m56.25,157.24v-40.6c0-2.47,1.9-4.37,4.37-4.37h28.68c2.11,0,3.88,1.76,3.88,3.88s-1.76,3.88-3.88,3.88h-24.38v12.83h21.21c2.11,0,3.87,1.76,3.87,3.95s-1.76,3.8-3.87,3.8h-21.21v13.25h24.74c2.11,0,3.88,1.76,3.88,3.88s-1.76,3.88-3.88,3.88h-29.04c-2.47,0-4.37-1.9-4.37-4.37Z"/><path class="cls-1" d="m111,116.36c0-2.4,1.9-4.37,4.37-4.37h.92c1.9,0,3.17.98,4.02,2.33l14.94,23.4,15.01-23.47c.92-1.48,2.19-2.26,3.95-2.26h.92c2.47,0,4.37,1.97,4.37,4.37v41.3c0,2.4-1.9,4.3-4.37,4.3-2.32,0-4.3-1.97-4.3-4.3v-29.6l-12.05,18.11c-.92,1.41-2.04,2.25-3.67,2.25s-2.68-.85-3.59-2.25l-11.98-17.97v29.66c0,2.4-1.9,4.23-4.3,4.23s-4.23-1.83-4.23-4.23v-41.5Z"/><path class="cls-1" d="m302.7,116.22c0-2.4,1.9-4.3,4.37-4.3s4.3,1.9,4.3,4.3v41.44c0,2.4-1.9,4.3-4.3,4.3s-4.37-1.9-4.37-4.3v-41.44Z"/><path class="cls-1" d="m281.21,112.13h-15.54c-.29,0-.59-.09-.9-.09s-.63.09-.93.09h-15.41c-2.25,0-4.02,1.81-4.02,4s1.77,4,4.02,4h11.56v37.77c0,2.4,2.07,4.3,4.53,4.3s4.47-1.9,4.47-4.3v-37.77h12.21c2.19,0,3.95-1.82,3.95-4s-1.76-4-3.95-4Z"/><path class="cls-1" d="m347.29,158.48l-17.27-40.6c-.28-.64-.49-1.27-.49-2.05,0-2.33,1.9-4.23,4.37-4.23,2.26,0,3.74,1.27,4.44,3.1l14.24,35.59,14.45-35.88c.57-1.48,2.12-2.82,4.16-2.82,2.4,0,4.3,1.83,4.3,4.16,0,.63-.21,1.34-.42,1.83l-17.34,40.88c-.92,2.18-2.54,3.52-5.01,3.52h-.49c-2.4,0-4.02-1.34-4.93-3.52Z"/><g><path class="cls-1" d="m395.5,112.28c-2.4,0-4.5,1.9-4.5,4.3v7.41c0,2.39,2.1,4.3,4.5,4.3s4.5-1.91,4.5-4.3v-7.41c0-2.4-2.1-4.3-4.5-4.3Z"/><path class="cls-1" d="m391.11,137.55c0-2.39,1.9-4.3,4.37-4.3s4.3,1.9,4.3,4.3v20.11c0,2.4-1.9,4.3-4.3,4.3s-4.37-1.9-4.37-4.3v-20.11Z"/></g><g><path class="cls-1" d="m4.5,112.28c-2.4,0-4.5,1.9-4.5,4.3v7.41c0,2.39,2.1,4.3,4.5,4.3s4.5-1.91,4.5-4.3v-7.41c0-2.4-2.1-4.3-4.5-4.3Z"/><path class="cls-1" d="m36.93,154.66l-9.29-11.93c6.62-2.05,11.36-6.85,11.36-14.74v-.14c0-4.3-1.8-8.47-4.41-11.15-3-2.93-7.59-5.16-13.59-5.4v-.05l-4.11-.08c-.07,0,.03-.04-.04-.04h.15v.13c-3,.17-3.84,1.79-3.84,3.92,0,2.24,1.65,3.95,3.89,3.95h4.17c5.29,0,7.77,4.38,7.77,9.21v.14c0,5-3.07,8.65-9.27,8.65h-11.02c-.04-2-1.95-4.38-4.32-4.38s-4.39,1.73-4.39,4.13v20.78c0,2.4,2.07,4.3,4.54,4.3s4.46-1.9,4.46-4.3v-12.53h8.97l11.98,14.93c.99,1.34,2.26,2.08,4.23,2.08,2.12,0,4.16-1.71,4.16-4.11,0-1.34-.56-2.32-1.41-3.37Z"/></g><path class="cls-1" d="m178.2,137.41v-.15c0-14.1,10.88-25.9,26.26-25.9s26.12,11.66,26.12,25.76v.14c0,14.1-10.88,25.91-26.27,25.91s-26.12-11.66-26.12-25.76Zm43.15,0v-.15c0-9.73-7.09-17.82-17.03-17.82s-16.89,7.95-16.89,17.67v.14c0,9.73,7.09,17.75,17.03,17.75s16.89-7.87,16.89-17.6Z"/></g></g></svg>